# Blender v2.79 (sub 0) OBJ File: 'roofChasis.blend'
# www.blender.org
mtllib firstStepBase.mtl
o black_1x6_Cube.015
v -24.296883 7.927284 -28.109804
v -24.296883 15.927284 -28.109804
v -24.296883 7.927284 -31.309805
v -24.296883 15.927284 -31.309805
v 23.703117 7.927284 -28.109804
v 23.703117 15.927284 -28.109804
v 23.703117 7.927284 -31.309805
v 23.703117 15.927284 -31.309805
vn -1.0000 0.0000 0.0000
vn 0.0000 0.0000 -1.0000
vn 1.0000 0.0000 0.0000
vn 0.0000 0.0000 1.0000
vn 0.0000 -1.0000 0.0000
vn 0.0000 1.0000 0.0000
usemtl Black
s off
f 1//1 2//1 4//1 3//1
f 3//2 4//2 8//2 7//2
f 7//3 8//3 6//3 5//3
f 5//4 6//4 2//4 1//4
f 3//5 7//5 5//5 1//5
f 8//6 4//6 2//6 6//6
o beige_1x4_Cube.014
v -16.000000 8.000000 -24.909805
v -16.000000 16.000000 -24.909805
v -16.000000 8.000000 -28.109806
v -16.000000 16.000000 -28.109806
v 15.999999 8.000000 -24.909805
v 15.999999 16.000000 -24.909805
v 15.999999 8.000000 -28.109806
v 15.999999 16.000000 -28.109806
vn -1.0000 0.0000 0.0000
vn 0.0000 0.0000 -1.0000
vn 1.0000 0.0000 0.0000
vn 0.0000 0.0000 1.0000
vn 0.0000 -1.0000 0.0000
vn 0.0000 1.0000 0.0000
usemtl Beige
s off
f 9//7 10//7 12//7 11//7
f 11//8 12//8 16//8 15//8
f 15//9 16//9 14//9 13//9
f 13//10 14//10 10//10 9//10
f 11//11 15//11 13//11 9//11
f 16//12 12//12 10//12 14//12
o light_gray_1x4.001_Cube.013
v -16.000000 12.800000 -14.909807
v -16.000000 16.000000 -14.909807
v -16.000000 12.800000 -24.909807
v -16.000000 16.000000 -24.909807
v 16.000000 12.800000 -14.909807
v 16.000000 16.000000 -14.909807
v 16.000000 12.800000 -24.909807
v 16.000000 16.000000 -24.909807
vn -1.0000 0.0000 0.0000
vn 0.0000 0.0000 -1.0000
vn 1.0000 0.0000 0.0000
vn 0.0000 0.0000 1.0000
vn 0.0000 -1.0000 0.0000
vn 0.0000 1.0000 0.0000
usemtl Light_gray
s off
f 17//13 18//13 20//13 19//13
f 19//14 20//14 24//14 23//14
f 23//15 24//15 22//15 21//15
f 21//16 22//16 18//16 17//16
f 19//17 23//17 21//17 17//17
f 24//18 20//18 18//18 22//18
o light_gray_1x4_Cube.012
v -16.000000 3.200000 -14.901815
v -16.000000 12.800000 -14.901815
v -16.000000 3.200000 -22.901815
v -16.000000 12.800000 -22.901815
v 16.000000 3.200000 -14.901815
v 16.000000 12.800000 -14.901815
v 16.000000 3.200000 -22.901815
v 16.000000 12.800000 -22.901815
vn -1.0000 0.0000 0.0000
vn 0.0000 0.0000 -1.0000
vn 1.0000 0.0000 0.0000
vn 0.0000 0.0000 1.0000
vn 0.0000 -1.0000 0.0000
vn 0.0000 1.0000 0.0000
usemtl Light_gray
s off
f 25//19 26//19 28//19 27//19
f 27//20 28//20 32//20 31//20
f 31//21 32//21 30//21 29//21
f 29//22 30//22 26//22 25//22
f 27//23 31//23 29//23 25//23
f 32//24 28//24 26//24 30//24
o transparent_glass_cockpit_Plane.001
v -5.333334 6.400000 57.000000
v 5.333334 6.400000 57.000000
v -16.000000 6.400000 -7.000000
v 16.000000 6.400000 -7.000000
v -16.000000 6.400000 12.231376
v -16.000000 6.400000 28.403902
v -5.333333 6.400000 57.000000
v 5.333333 6.400000 57.000000
v 16.000000 6.400000 28.403902
v 16.000000 6.400000 12.231376
v 5.333333 14.242388 -7.000000
v -5.333333 14.242388 -7.000000
v -5.333333 23.815632 28.403902
v -5.333333 24.446636 12.231376
v 5.333333 23.815632 28.403902
v 5.333333 24.446636 12.231376
vn 0.7610 0.6271 -0.1664
vn -0.7610 0.6271 -0.1664
vn 0.0000 0.8834 -0.4687
vn -0.8126 0.4977 0.3031
vn -0.8569 0.5155 0.0101
vn 0.0000 0.8541 0.5201
vn 0.0000 0.9992 0.0390
vn 0.8126 0.4977 0.3031
vn 0.8569 0.5155 0.0101
usemtl Transparent
s off
f 48//25 42//25 36//25 43//25
f 37//26 46//26 44//26 35//26
f 46//27 48//27 43//27 44//27
f 33//28 39//28 45//28 38//28
f 38//29 45//29 46//29 37//29
f 39//30 40//30 47//30 45//30
f 45//31 47//31 48//31 46//31
f 40//32 34//32 41//32 47//32
f 47//33 41//33 42//33 48//33
o light_gray_2x16_Cube.002
v 64.162651 3.200000 -6.631044
v 64.162651 6.400000 -6.631044
v 64.024139 3.200000 9.368356
v 64.024139 6.400000 9.368356
v -63.832546 3.200000 -7.739173
v -63.832546 6.400000 -7.739173
v -63.971062 3.200000 8.260227
v -63.971062 6.400000 8.260227
vn 1.0000 0.0000 0.0087
vn -0.0087 0.0000 1.0000
vn -1.0000 0.0000 -0.0087
vn 0.0087 0.0000 -1.0000
vn 0.0000 -1.0000 0.0000
vn 0.0000 1.0000 -0.0000
usemtl Light_gray
s off
f 49//34 50//34 52//34 51//34
f 51//35 52//35 56//35 55//35
f 55//36 56//36 54//36 53//36
f 53//37 54//37 50//37 49//37
f 51//38 55//38 53//38 49//38
f 56//39 52//39 50//39 54//39
o light_gray_2x1_Cube.001
v -47.763885 3.200003 -15.600357
v -47.763885 6.400003 -15.600357
v -47.833141 3.200003 -7.600657
v -47.833141 6.400003 -7.600657
v -63.763287 3.200003 -15.738873
v -63.763287 6.400003 -15.738873
v -63.832542 3.200003 -7.739172
v -63.832542 6.400003 -7.739172
vn 1.0000 0.0000 0.0087
vn -0.0087 0.0000 1.0000
vn -1.0000 0.0000 -0.0087
vn 0.0087 0.0000 -1.0000
vn 0.0000 -1.0000 0.0000
vn 0.0000 1.0000 0.0000
usemtl Light_gray
s off
f 57//40 58//40 60//40 59//40
f 59//41 60//41 64//41 63//41
f 63//42 64//42 62//42 61//42
f 61//43 62//43 58//43 57//43
f 59//44 63//44 61//44 57//44
f 64//45 60//45 58//45 62//45
o dark_gray_2x4_Cube
v -64.040314 -0.000000 16.259916
v -63.763283 -0.000000 -15.738869
v -47.763889 -0.000000 -15.600349
v -48.040924 -0.000000 16.398439
v -64.040321 3.200000 16.259909
v -63.763279 3.200000 -15.738878
v -47.763889 3.200000 -15.600347
v -48.040924 3.200000 16.398434
vn 0.0000 -1.0000 0.0000
vn 0.0000 1.0000 0.0000
vn -1.0000 -0.0000 -0.0087
vn 0.0087 -0.0000 -1.0000
vn 1.0000 -0.0000 0.0087
vn -0.0087 0.0000 1.0000
usemtl Dark_gray
s off
f 65//46 66//46 67//46 68//46
f 69//47 72//47 71//47 70//47
f 65//48 69//48 70//48 66//48
f 66//49 70//49 71//49 67//49
f 67//50 71//50 72//50 68//50
f 69//51 65//51 68//51 72//51
o light_gray_2x1.001_Cube.003
v -47.971672 3.200000 8.398733
v -47.971672 6.400000 8.398733
v -48.040928 3.200000 16.398434
v -48.040928 6.400000 16.398434
v -63.971073 3.200000 8.260218
v -63.971073 6.400000 8.260218
v -64.040329 3.200000 16.259918
v -64.040329 6.400000 16.259918
vn 1.0000 0.0000 0.0087
vn -0.0087 0.0000 1.0000
vn -1.0000 0.0000 -0.0087
vn 0.0087 0.0000 -1.0000
vn 0.0000 -1.0000 0.0000
vn 0.0000 1.0000 0.0000
usemtl Light_gray
s off
f 73//52 74//52 76//52 75//52
f 75//53 76//53 80//53 79//53
f 79//54 80//54 78//54 77//54
f 77//55 78//55 74//55 73//55
f 75//56 79//56 77//56 73//56
f 80//57 76//57 74//57 78//57
o transparent_2x1_Cube.005
v -47.970985 -7.768333 8.319610
v -47.970985 0.231667 8.319610
v -47.998692 -7.768333 11.519489
v -47.998692 0.231667 11.519489
v -63.970387 -7.768333 8.181093
v -63.970387 0.231667 8.181093
v -63.998093 -7.768333 11.380973
v -63.998093 0.231667 11.380973
vn 1.0000 0.0000 0.0087
vn -0.0087 0.0000 1.0000
vn -1.0000 0.0000 -0.0087
vn 0.0087 0.0000 -1.0000
vn 0.0000 -1.0000 0.0000
vn 0.0000 1.0000 0.0000
usemtl Transparent
s off
f 81//58 82//58 84//58 83//58
f 83//59 84//59 88//59 87//59
f 87//60 88//60 86//60 85//60
f 85//61 86//61 82//61 81//61
f 83//62 87//62 85//62 81//62
f 88//63 84//63 82//63 86//63
o black_engine_bottom_join_Cube.007
v -47.833717 -0.544130 -7.535602
v -47.833717 0.231667 -7.535602
v -47.861423 -7.768333 -4.335722
v -47.861423 0.231667 -4.335722
v -63.833118 -0.544130 -7.674118
v -63.833118 0.231667 -7.674118
v -63.860825 -7.768333 -4.474238
v -63.860825 0.231667 -4.474238
v -47.860859 -7.768333 -4.400779
v -47.860859 0.231666 -4.400779
v -47.943970 -7.768333 5.198862
v -47.943970 0.231666 5.198862
v -63.860260 -7.768333 -4.539295
v -63.860260 0.231666 -4.539295
v -63.943367 -7.768333 5.060347
v -63.943367 0.231666 5.060347
v -47.943649 -7.768333 5.162170
v -47.943649 0.231666 5.162170
v -47.971355 -7.768333 8.362051
v -47.971355 0.231666 8.362051
v -63.943050 -7.768333 5.023655
v -63.943050 0.231666 5.023655
v -63.970757 -7.768333 8.223536
v -63.970757 0.231666 8.223536
vn 1.0000 0.0000 0.0087
vn -0.0087 0.0000 1.0000
vn -1.0000 0.0000 -0.0087
vn 0.0087 0.0000 -1.0000
vn 0.0079 -0.4050 -0.9143
vn 0.0000 1.0000 0.0000
vn 0.0000 -1.0000 0.0000
usemtl Black
s off
f 89//64 90//64 92//64 91//64
f 91//65 92//65 96//65 95//65
f 95//66 96//66 94//66 93//66
f 93//67 94//67 90//67 89//67
f 91//68 95//68 93//68 89//68
f 96//69 92//69 90//69 94//69
f 97//64 98//64 100//64 99//64
f 99//65 100//65 104//65 103//65
f 103//66 104//66 102//66 101//66
f 101//67 102//67 98//67 97//67
f 99//70 103//70 101//70 97//70
f 104//69 100//69 98//69 102//69
f 105//64 106//64 108//64 107//64
f 107//65 108//65 112//65 111//65
f 111//66 112//66 110//66 109//66
f 109//67 110//67 106//67 105//67
f 107//70 111//70 109//70 105//70
f 112//69 108//69 106//69 110//69
o black_engine_bottom_join.001_Cube.010
v 64.162086 -0.544130 -6.565983
v 64.162086 0.231667 -6.565983
v 64.134384 -7.768333 -3.366103
v 64.134384 0.231667 -3.366103
v 48.162685 -0.544130 -6.704499
v 48.162685 0.231667 -6.704499
v 48.134979 -7.768333 -3.504619
v 48.134979 0.231667 -3.504619
v 64.134941 -7.768333 -3.431160
v 64.134941 0.231666 -3.431160
v 64.051834 -7.768333 6.168481
v 64.051834 0.231666 6.168481
v 48.135544 -7.768333 -3.569676
v 48.135544 0.231666 -3.569676
v 48.052437 -7.768333 6.029965
v 48.052437 0.231666 6.029965
v 64.052155 -7.768333 6.131789
v 64.052155 0.231666 6.131789
v 64.024452 -7.768333 9.331670
v 64.024452 0.231666 9.331670
v 48.052753 -7.768333 5.993274
v 48.052753 0.231666 5.993274
v 48.025047 -7.768333 9.193154
v 48.025047 0.231666 9.193154
vn 1.0000 0.0000 0.0087
vn -0.0087 0.0000 1.0000
vn -1.0000 0.0000 -0.0087
vn 0.0087 0.0000 -1.0000
vn 0.0079 -0.4050 -0.9143
vn 0.0000 1.0000 0.0000
vn 0.0000 -1.0000 0.0000
usemtl Black
s off
f 113//71 114//71 116//71 115//71
f 115//72 116//72 120//72 119//72
f 119//73 120//73 118//73 117//73
f 117//74 118//74 114//74 113//74
f 115//75 119//75 117//75 113//75
f 120//76 116//76 114//76 118//76
f 121//71 122//71 124//71 123//71
f 123//72 124//72 128//72 127//72
f 127//73 128//73 126//73 125//73
f 125//74 126//74 122//74 121//74
f 123//77 127//77 125//77 121//77
f 128//76 124//76 122//76 126//76
f 129//71 130//71 132//71 131//71
f 131//72 132//72 136//72 135//72
f 135//73 136//73 134//73 133//73
f 133//74 134//74 130//74 129//74
f 131//77 135//77 133//77 129//77
f 136//76 132//76 130//76 134//76
o dark_gray_2x4.001_Cube.009
v 47.955482 -0.000000 17.229534
v 48.232513 -0.000000 -14.769250
v 64.231903 -0.000000 -14.630731
v 63.954872 -0.000000 17.368057
v 47.955475 3.200000 17.229527
v 48.232517 3.200000 -14.769259
v 64.231911 3.200000 -14.630728
v 63.954872 3.200000 17.368052
vn 0.0000 -1.0000 0.0000
vn 0.0000 1.0000 0.0000
vn -1.0000 -0.0000 -0.0087
vn 0.0087 -0.0000 -1.0000
vn 1.0000 -0.0000 0.0087
vn -0.0087 0.0000 1.0000
usemtl Dark_gray
s off
f 137//78 138//78 139//78 140//78
f 141//79 144//79 143//79 142//79
f 137//80 141//80 142//80 138//80
f 138//81 142//81 143//81 139//81
f 139//82 143//82 144//82 140//82
f 141//83 137//83 140//83 144//83
o light_gray_2x1.003_Cube.008
v 64.231918 3.200003 -14.630739
v 64.231918 6.400003 -14.630739
v 64.162659 3.200003 -6.631039
v 64.162659 6.400003 -6.631039
v 48.232517 3.200003 -14.769255
v 48.232517 6.400003 -14.769255
v 48.163261 3.200003 -6.769555
v 48.163261 6.400003 -6.769555
vn 1.0000 0.0000 0.0087
vn -0.0087 0.0000 1.0000
vn -1.0000 0.0000 -0.0087
vn 0.0087 0.0000 -1.0000
vn 0.0000 -1.0000 -0.0000
vn 0.0000 1.0000 0.0000
usemtl Light_gray
s off
f 145//84 146//84 148//84 147//84
f 147//85 148//85 152//85 151//85
f 151//86 152//86 150//86 149//86
f 149//87 150//87 146//87 145//87
f 147//88 151//88 149//88 145//88
f 152//89 148//89 146//89 150//89
o light_gray_2x1.002_Cube.006
v 64.024132 3.200000 9.368351
v 64.024132 6.400000 9.368351
v 63.954876 3.200000 17.368052
v 63.954876 6.400000 17.368052
v 48.024731 3.200000 9.229836
v 48.024731 6.400000 9.229836
v 47.955475 3.200000 17.229536
v 47.955475 6.400000 17.229536
vn 1.0000 0.0000 0.0087
vn -0.0087 0.0000 1.0000
vn -1.0000 0.0000 -0.0087
vn 0.0087 0.0000 -1.0000
vn 0.0000 -1.0000 0.0000
vn 0.0000 1.0000 0.0000
usemtl Light_gray
s off
f 153//90 154//90 156//90 155//90
f 155//91 156//91 160//91 159//91
f 159//92 160//92 158//92 157//92
f 157//93 158//93 154//93 153//93
f 155//94 159//94 157//94 153//94
f 160//95 156//95 154//95 158//95
o transparent_2x1.001_Cube.004
v 64.024818 -7.768333 9.289228
v 64.024818 0.231667 9.289228
v 63.997112 -7.768333 12.489108
v 63.997112 0.231667 12.489108
v 48.025417 -7.768333 9.150712
v 48.025417 0.231667 9.150712
v 47.997711 -7.768333 12.350592
v 47.997711 0.231667 12.350592
vn 1.0000 0.0000 0.0087
vn -0.0087 0.0000 1.0000
vn -1.0000 0.0000 -0.0087
vn 0.0087 0.0000 -1.0000
vn 0.0000 -1.0000 0.0000
vn 0.0000 1.0000 0.0000
usemtl Transparent
s off
f 161//96 162//96 164//96 163//96
f 163//97 164//97 168//97 167//97
f 167//98 168//98 166//98 165//98
f 165//99 166//99 162//99 161//99
f 163//100 167//100 165//100 161//100
f 168//101 164//101 162//101 166//101
o dark_gray_glass_holder_Cube.011
v 16.434013 3.200000 -14.857871
v 10.396470 16.052580 -14.943249
v 16.364754 3.200000 -6.858171
v 10.327211 16.052580 -6.943548
v -16.364754 3.200000 -15.141829
v -10.408741 16.013247 -15.131479
v -16.434013 3.200000 -7.142129
v -10.477999 16.013247 -7.131779
v 16.399384 3.200000 -10.858021
v 16.434013 9.600000 -14.857871
v 10.361841 16.052580 -10.943398
v 16.364754 9.600000 -6.858171
v -0.034629 3.200000 -7.000150
v -0.034629 16.000000 -7.000150
v -16.434013 9.600000 -7.142129
v -16.399384 3.200000 -11.141979
v -10.443370 16.013247 -11.131629
v -16.364754 9.600000 -15.141829
v 0.034629 3.200000 -14.999850
v 0.034629 16.000000 -14.999850
v 0.000000 16.000000 -11.000000
v 0.000000 3.200000 -11.000000
v 0.034629 9.600000 -14.999850
v -16.399384 9.600000 -11.141979
v -0.034629 9.600000 -7.000150
v 16.399384 9.600000 -10.858021
v 16.416698 3.200000 -12.857946
v 14.415127 12.795932 -14.853477
v 10.344526 16.052580 -8.943474
v 16.364754 6.400001 -6.858171
v 8.165063 3.200000 -6.929161
v -8.234321 16.000000 -7.071139
v -16.434013 6.400001 -7.142129
v -16.416698 3.200000 -9.142054
v -10.426055 16.013247 -13.131555
v -16.364754 6.400001 -15.141829
v -8.165063 3.200000 -15.070839
v 8.234321 16.000000 -14.928861
v 16.382069 3.200000 -8.858096
v 16.434013 6.400001 -14.857871
v 10.379155 16.052580 -12.943323
v 14.345868 12.795932 -6.853776
v -8.234321 3.200000 -7.071139
v 8.165063 16.000000 -6.929161
v -14.052736 12.800000 -7.121512
v -16.382069 3.200000 -13.141904
v -10.460684 16.013247 -9.131704
v -13.983479 12.800000 -15.121212
v 8.234321 3.200000 -14.928861
v -8.165063 16.000000 -15.070839
v 0.017315 16.000000 -12.999925
v -0.017315 16.000000 -9.000075
v -8.199692 16.000000 -11.070990
v 8.199692 16.000000 -10.929010
v 0.017315 3.200000 -12.999925
v -0.017315 3.200000 -9.000075
v 8.199692 3.200000 -10.929010
v -8.199692 3.200000 -11.070990
v 8.234321 9.600000 -14.928861
v -8.165063 9.600000 -15.070839
v 0.034629 6.400001 -14.999850
v 0.034629 12.800000 -14.999850
v -16.382069 9.600000 -13.141904
v -16.416698 9.600000 -9.142054
v -16.399384 6.400001 -11.141979
v -14.018107 12.800000 -11.121363
v -8.234321 9.600000 -7.071139
v 8.165063 9.600000 -6.929161
v -0.034629 6.400001 -7.000150
v -0.034629 12.800000 -7.000150
v 16.382069 9.600000 -8.858096
v 16.416698 9.600000 -12.857946
v 16.399384 6.400001 -10.858021
v 14.380497 12.795932 -10.853626
v 14.397812 12.795932 -12.853552
v 16.416698 6.400001 -12.857946
v 16.382069 6.400001 -8.858096
v 8.165063 12.800000 -6.929161
v 8.165063 6.400001 -6.929161
v -8.234321 6.400001 -7.071139
v -14.035422 12.800000 -9.121437
v -16.416698 6.400001 -9.142054
v -16.382069 6.400001 -13.141904
v -8.165063 12.800000 -15.070839
v -8.165063 6.400001 -15.070839
v 8.234321 6.400001 -14.928861
v -8.217007 3.200000 -9.071064
v 8.182377 3.200000 -8.929086
v 8.217007 3.200000 -12.928936
v 8.182377 16.000000 -8.929086
v -8.217007 16.000000 -9.071064
v -8.182377 16.000000 -13.070914
v 8.217007 16.000000 -12.928936
v -8.182377 3.200000 -13.070914
v 8.234321 12.800000 -14.928861
v -14.000793 12.800000 -13.121287
v -8.234321 12.800000 -7.071139
v 14.363183 12.795932 -8.853702
vn 0.6295 0.7770 0.0055
vn -0.0138 0.0093 0.9999
vn -0.6685 0.7437 -0.0058
vn 0.0074 -0.0093 -0.9999
vn 0.0000 -1.0000 -0.0000
vn -0.0243 0.9997 -0.0002
vn 0.0000 1.0000 -0.0000
vn 0.0087 0.0000 -1.0000
vn -1.0000 0.0000 -0.0087
vn -0.0087 0.0000 1.0000
vn 1.0000 0.0000 0.0087
vn 0.6295 0.7770 0.0054
vn 0.8454 0.5340 0.0073
vn -0.0102 -0.0039 0.9999
vn -0.0074 0.0093 0.9999
vn -0.8022 0.5970 -0.0069
vn 0.0138 -0.0093 -0.9999
vn 0.0059 1.0000 0.0001
vn 0.0102 0.0039 -0.9999
usemtl Dark_gray
s off
f 266//102 197//102 172//102 210//102
f 265//103 200//103 176//103 213//103
f 264//104 203//104 174//104 216//104
f 263//105 206//105 170//105 196//105
f 262//106 214//106 173//106 205//106
f 261//107 209//107 170//107 206//107
f 260//108 219//108 188//108 218//108
f 259//108 220//108 189//108 221//108
f 258//107 197//107 179//107 222//107
f 257//106 223//106 187//106 217//106
f 256//106 224//106 190//106 225//106
f 255//106 202//106 184//106 226//106
f 254//109 227//109 178//109 208//109
f 253//109 228//109 191//109 229//109
f 252//109 218//109 188//109 230//109
f 251//110 231//110 186//110 204//110
f 250//110 232//110 192//110 233//110
f 249//104 215//104 185//104 234//104
f 248//111 235//111 183//111 201//111
f 247//111 236//111 193//111 237//111
f 246//111 212//111 182//111 238//111
f 245//112 239//112 180//112 198//112
f 244//112 240//112 194//112 241//112
f 243//113 209//113 179//113 242//113
f 240//114 243//114 242//114 194//114
f 178//114 196//114 243//114 240//114
f 196//102 170//102 209//102 243//102
f 195//112 244//112 241//112 177//112
f 169//112 208//112 244//112 195//112
f 208//112 178//112 240//112 244//112
f 207//112 245//112 198//112 171//112
f 177//112 241//112 245//112 207//112
f 241//112 194//112 239//112 245//112
f 236//111 246//111 238//111 193//111
f 180//115 210//115 246//115 236//115
f 210//116 172//116 212//116 246//116
f 199//111 247//111 237//111 181//111
f 171//111 198//111 247//111 199//111
f 198//111 180//111 236//111 247//111
f 211//111 248//111 201//111 175//111
f 181//111 237//111 248//111 211//111
f 237//111 193//111 235//111 248//111
f 232//117 249//117 234//117 192//117
f 183//117 213//117 249//117 232//117
f 213//104 176//104 215//104 249//104
f 202//110 250//110 233//110 184//110
f 175//110 201//110 250//110 202//110
f 201//110 183//110 232//110 250//110
f 214//110 251//110 204//110 173//110
f 184//110 233//110 251//110 214//110
f 233//110 192//110 231//110 251//110
f 228//109 252//109 230//109 191//109
f 186//109 216//109 252//109 228//109
f 216//118 174//118 218//118 252//118
f 205//109 253//109 229//109 187//109
f 173//109 204//109 253//109 205//109
f 204//109 186//109 228//109 253//109
f 217//109 254//109 208//109 169//109
f 187//109 229//109 254//109 217//109
f 229//109 191//109 227//109 254//109
f 224//106 255//106 226//106 190//106
f 181//106 211//106 255//106 224//106
f 211//106 175//106 202//106 255//106
f 207//106 256//106 225//106 177//106
f 171//106 199//106 256//106 207//106
f 199//106 181//106 224//106 256//106
f 195//106 257//106 217//106 169//106
f 177//106 225//106 257//106 195//106
f 225//106 190//106 223//106 257//106
f 220//108 258//108 222//108 189//108
f 182//108 212//108 258//108 220//108
f 212//107 172//107 197//107 258//107
f 215//119 259//119 221//119 185//119
f 176//119 200//119 259//119 215//119
f 200//108 182//108 220//108 259//108
f 203//119 260//119 218//119 174//119
f 185//119 221//119 260//119 203//119
f 221//108 189//108 219//108 260//108
f 219//108 261//108 206//108 188//108
f 189//108 222//108 261//108 219//108
f 222//107 179//107 209//107 261//107
f 223//106 262//106 205//106 187//106
f 190//106 226//106 262//106 223//106
f 226//106 184//106 214//106 262//106
f 227//120 263//120 196//120 178//120
f 191//109 230//109 263//109 227//109
f 230//109 188//109 206//109 263//109
f 231//117 264//117 216//117 186//117
f 192//117 234//117 264//117 231//117
f 234//104 185//104 203//104 264//104
f 235//111 265//111 213//111 183//111
f 193//111 238//111 265//111 235//111
f 238//111 182//111 200//111 265//111
f 239//114 266//114 210//114 180//114
f 194//114 242//114 266//114 239//114
f 242//102 179//102 197//102 266//102
o engine_dark_gray.001_Cube.017
v 2.470284 16.000000 -15.309805
v 0.000000 18.799999 -15.309805
v 2.470284 16.000000 -31.309805
v 0.000000 18.799999 -31.309805
v 13.529716 16.000000 -15.309805
v 16.000000 18.799999 -15.309805
v 13.529716 16.000000 -31.309805
v 16.000000 18.799999 -31.309805
v 5.286779 21.607990 -15.309805
v 0.017633 27.207993 -15.309805
v 5.668228 21.607990 -31.309805
v 5.658495 27.207989 -31.309805
v 10.748487 21.607988 -15.309805
v 16.017632 27.207989 -15.309805
v 10.376720 21.607990 -31.309805
v 10.376772 27.207989 -31.309805
v 10.376719 24.407990 -31.309805
v 16.017632 24.407988 -15.309805
v 0.017633 24.407991 -15.309805
v 5.668228 24.407990 -31.309805
v 10.596289 21.602440 -15.309805
v 15.998611 18.799997 -15.309805
v 10.596289 21.602440 -31.309805
v 15.998612 18.799997 -31.309805
v 5.406479 21.613377 -15.309805
v -0.001381 18.815823 -15.309805
v 5.406480 21.613377 -31.309805
v -0.001380 18.815823 -31.309805
vn -0.7499 -0.6616 0.0000
vn 0.0000 0.0000 -1.0000
vn 0.7499 -0.6616 0.0000
vn 0.0000 0.0000 1.0000
vn 0.0000 -1.0000 0.0000
vn 0.0000 1.0000 0.0000
vn -0.9430 -0.0016 -0.3328
vn 0.9431 -0.0000 -0.3325
vn 0.7216 -0.6789 -0.1356
vn -0.7215 -0.6789 -0.1360
vn 0.4605 0.8877 0.0000
vn -0.4595 0.8882 -0.0000
vn 0.0021 1.0000 0.0000
vn -0.0010 -1.0000 0.0000
usemtl Dark_gray
s off
f 267//121 268//121 270//121 269//121
f 269//122 270//122 274//122 273//122
f 273//123 274//123 272//123 271//123
f 271//124 272//124 268//124 267//124
f 269//125 273//125 271//125 267//125
f 274//126 270//126 268//126 272//126
f 285//127 276//127 278//127 286//127
f 277//122 286//122 278//122 282//122 283//122 281//122
f 283//128 282//128 280//128 284//128
f 279//124 284//124 280//124 276//124 285//124 275//124
f 277//125 281//125 279//125 275//125
f 282//126 278//126 276//126 280//126
f 281//129 283//129 284//129 279//129
f 275//130 285//130 286//130 277//130
f 287//131 288//131 290//131 289//131
f 289//122 290//122 294//122 293//122
f 293//132 294//132 292//132 291//132
f 291//124 292//124 288//124 287//124
f 289//133 293//133 291//133 287//133
f 294//134 290//134 288//134 292//134
o engine_dark_gray.005_Cube.022
v -10.713221 21.607992 -15.309805
v -15.982367 27.207991 -15.309805
v -10.331772 21.607992 -31.309805
v -10.341505 27.207991 -31.309805
v -5.251513 21.607992 -15.309805
v 0.017633 27.207991 -15.309805
v -5.623281 21.607992 -31.309805
v -5.623228 27.207991 -31.309805
v -5.623281 24.407991 -31.309805
v 0.017633 24.407991 -15.309805
v -15.982367 24.407991 -15.309805
v -10.331772 24.407991 -31.309805
v -13.529716 16.000004 -15.309804
v -16.000000 18.800003 -15.309804
v -13.529716 16.000004 -31.309807
v -16.000000 18.800005 -31.309807
v -2.470284 16.000000 -15.309804
v 0.000000 18.799999 -15.309804
v -2.470284 16.000002 -31.309807
v 0.000000 18.800001 -31.309807
v -5.403710 21.602440 -15.309804
v -0.001388 18.799999 -15.309804
v -5.403711 21.602442 -31.309807
v -0.001388 18.799999 -31.309807
v -10.593520 21.613377 -15.309804
v -16.001381 18.815823 -15.309804
v -10.593520 21.613379 -31.309807
v -16.001381 18.815825 -31.309807
vn -0.9430 -0.0016 -0.3327
vn 0.0000 0.0000 -1.0000
vn 0.9431 -0.0000 -0.3325
vn 0.0000 0.0000 1.0000
vn 0.0000 -1.0000 0.0000
vn 0.0000 1.0000 -0.0000
vn 0.7216 -0.6789 -0.1356
vn -0.7215 -0.6789 -0.1360
vn -0.7499 -0.6616 -0.0000
vn 0.7499 -0.6616 -0.0000
vn 0.4605 0.8877 0.0000
vn -0.4595 0.8882 0.0000
vn 0.0021 1.0000 0.0000
vn -0.0010 -1.0000 0.0000
usemtl Dark_gray
s off
f 305//135 296//135 298//135 306//135
f 297//136 306//136 298//136 302//136 303//136 301//136
f 303//137 302//137 300//137 304//137
f 299//138 304//138 300//138 296//138 305//138 295//138
f 297//139 301//139 299//139 295//139
f 302//140 298//140 296//140 300//140
f 301//141 303//141 304//141 299//141
f 295//142 305//142 306//142 297//142
f 307//143 308//143 310//143 309//143
f 309//136 310//136 314//136 313//136
f 313//144 314//144 312//144 311//144
f 311//138 312//138 308//138 307//138
f 309//139 313//139 311//139 307//139
f 314//140 310//140 308//140 312//140
f 315//145 316//145 318//145 317//145
f 317//136 318//136 322//136 321//136
f 321//146 322//146 320//146 319//146
f 319//138 320//138 316//138 315//138
f 317//147 321//147 319//147 315//147
f 322//148 318//148 316//148 320//148
